<svg xmlns="http://www.w3.org/2000/svg" viewBox="0 0 30 30"><defs><style>.cls-1{fill:#fff;}.cls-2{fill:#002f59;}</style></defs><title>資產 3</title><g id="圖層_2" data-name="圖層 2"><g id="存款-銀行轉帳第二步"><g id="下載"><circle id="椭圆_1098" data-name="椭圆 1098" class="cls-1" cx="15" cy="15" r="15"/><path id="路径_89402" data-name="路径 89402" class="cls-2" d="M6.39,16.6l0,0c.21.32.22.33,0,.59A7.56,7.56,0,0,1,3.65,19a2.65,2.65,0,0,1-1.45.08,1.2,1.2,0,0,1-.84-1.47.88.88,0,0,1,0-.15,2.54,2.54,0,0,1,.78-1.15,6.55,6.55,0,0,0,1.25-1.48,1.19,1.19,0,0,0,.23-.69c0-.34-.25-.53-.54-.37a2.32,2.32,0,0,0-.58.45c-.12.12-.2.15-.32.07l-.14-.07A3.32,3.32,0,0,1,3,13.4a3.06,3.06,0,0,1,1.44-.46A1.31,1.31,0,0,1,5.8,14.22a1.27,1.27,0,0,1-.2.71,2.11,2.11,0,0,1-.9.9,4,4,0,0,0-1.18.86,2.09,2.09,0,0,0-.34.53.47.47,0,0,0,.17.58,1,1,0,0,0,.83.16,3.49,3.49,0,0,0,1.68-.87C6,16.94,6.21,16.77,6.39,16.6Zm5,.73-.59-2.44-.1.15L9.43,17.19a.53.53,0,0,1-.14.12.77.77,0,0,1-.07-.16c-.23-1-.46-2.06-.68-3.09,0,0,0-.1,0-.16h.35s.08.09.1.15l.34,1.56.17.78,1.47-2.5H11l.59,2.49.1-.17,1.19-2.06c.16-.3.19-.3.53-.24-.08.23-1.91,3.36-2,3.42ZM23,15.64H20.16A1,1,0,0,0,20.79,17a1.1,1.1,0,0,0,.54,0,1.63,1.63,0,0,0,1-.56l.19-.24.3.19a1.92,1.92,0,0,1-2.21,1,1.31,1.31,0,0,1-.85-1.2,2.21,2.21,0,0,1,1.67-2.29,1.31,1.31,0,0,1,1.61.93h0a1.88,1.88,0,0,1,0,.85Zm-.39-.38a.94.94,0,0,0-.46-.87,1.09,1.09,0,0,0-.93-.1,1.6,1.6,0,0,0-1,1Zm-6.16-.77.08-.45c0-.11.06-.16.18-.15H17l0,.19c-.18,1-.35,2-.53,3-.06.33,0,.26-.32.27H16l.08-.54a5.51,5.51,0,0,1-.5.38,1.56,1.56,0,0,1-1.13.24A1.36,1.36,0,0,1,13.33,16,2.19,2.19,0,0,1,15,13.85a1.22,1.22,0,0,1,1.43.58l.05.06ZM14.79,17l.2,0a1.67,1.67,0,0,0,1.34-1.64,1,1,0,0,0-.95-1.11,1.22,1.22,0,0,0-.27,0,1.68,1.68,0,0,0-1.35,1.46A1.08,1.08,0,0,0,14.6,17a.55.55,0,0,0,.18,0ZM5.88,12.85l-.39-.06A.64.64,0,0,1,5,12v0a1.19,1.19,0,0,1,.37-.65,1.81,1.81,0,0,1,1.17-.46.51.51,0,0,1,.53.49A1.31,1.31,0,0,1,6,12.84H5.88Zm17.86,4.47.53-3.05h-.52s0,0,0,0c.05-.33.05-.33.37-.33h.1c.11,0,.15,0,.17-.14.06-.37.13-.74.2-1.12H25l-.22,1.25h.64a2.87,2.87,0,0,1-.05.31.12.12,0,0,1-.11.07h-.41c-.11,0-.15,0-.17.14l-.47,2.74c0,.14-.08.18-.2.17Zm-4.18-4.73-.18,1-.62,3.51c0,.15-.07.21-.22.19a.81.81,0,0,0-.22,0l.13-.77c.22-1.25.44-2.5.67-3.75,0-.25.08-.27.44-.21Zm-1.08,0-.19,1.08c-.2,1.12-.4,2.23-.59,3.35-.06.36-.08.37-.46.3l.18-1L18,12.78c0-.16.08-.23.24-.21Zm8.14,4.12a.56.56,0,0,1-.51.59h0a.6.6,0,0,1,0-1.2.56.56,0,0,1,.56.57v0Zm1.47.59a.56.56,0,0,1-.53-.36.6.6,0,0,1,.12-.66.55.55,0,0,1,.62-.13.59.59,0,0,1,.36.55.58.58,0,0,1-.16.43.55.55,0,0,1-.41.17Z"/></g></g></g></svg>