<svg xmlns="http://www.w3.org/2000/svg" viewBox="0 0 31 30"><defs><style>.cls-1{fill:#ea5504;}.cls-2{fill:#fff;}</style></defs><title>資產 9</title><g id="圖層_2" data-name="圖層 2"><g id="存款-銀行轉帳第二步"><g id="下載"><ellipse id="椭圆_1096" data-name="椭圆 1096" class="cls-1" cx="15.5" cy="15" rx="15.5" ry="15"/><path id="路径_89357" data-name="路径 89357" class="cls-2" d="M4.38,16a1.65,1.65,0,0,1-.54,1.32,2.22,2.22,0,0,1-1.49.47,2.71,2.71,0,0,1-.75-.1A1.68,1.68,0,0,1,1,17.37V16a2.52,2.52,0,0,0,.7.34,2,2,0,0,0,.71.14.65.65,0,0,0,.41-.11A.41.41,0,0,0,3,16.06a.45.45,0,0,0,0-.2,1,1,0,0,0-.12-.17c-.06-.07-.2-.19-.43-.4a2.6,2.6,0,0,1-.62-.74,1.8,1.8,0,0,1-.19-.82,1.76,1.76,0,0,1,.24-.9,1.6,1.6,0,0,1,.67-.62,2.19,2.19,0,0,1,1-.22A3,3,0,0,1,5,12.4L4.5,13.54a2.33,2.33,0,0,0-1.06-.34.55.55,0,0,0-.36.11.41.41,0,0,0-.12.31.62.62,0,0,0,.12.35,2.73,2.73,0,0,0,.47.43,2.48,2.48,0,0,1,.63.7A1.67,1.67,0,0,1,4.38,16Zm2.5,1.71H5.47l.86-4.35H5.18l.25-1.23H9.16L8.9,13.31H7.75Zm1.64,0,1.12-5.58h1.44L10,17.66ZM14,13.24a1,1,0,0,0-.71.3,2,2,0,0,0-.5.82,3.39,3.39,0,0,0-.17,1.14,1.2,1.2,0,0,0,.2.76.71.71,0,0,0,.58.25,2.49,2.49,0,0,0,.61-.08,4.93,4.93,0,0,0,.73-.27V17.4a3.83,3.83,0,0,1-1.6.34,1.86,1.86,0,0,1-1.45-.57,2.27,2.27,0,0,1-.51-1.6,4.58,4.58,0,0,1,.37-1.86,2.86,2.86,0,0,1,1-1.28A2.55,2.55,0,0,1,14,12a3.23,3.23,0,0,1,1.74.5l-.53,1.17a3.73,3.73,0,0,0-.63-.32,1.86,1.86,0,0,0-.58-.1Zm5.72.51a1.91,1.91,0,0,1-.62,1.51,2.5,2.5,0,0,1-1.7.55H17l-.37,1.85H15.25l1.12-5.58h1.36a2.21,2.21,0,0,1,1.44.43,1.57,1.57,0,0,1,.5,1.24Zm-2.39.84h.24a.67.67,0,0,0,.53-.22.85.85,0,0,0,.2-.57.53.53,0,0,0-.13-.36.46.46,0,0,0-.36-.14h-.21Zm5.29,2H21l-.46,1H19l2.7-5.58h1.83L24,17.66H22.61l0-1Zm-1.1-1.19h1.07l-.07-1.62V13a4.83,4.83,0,0,1-.22.64Zm5.1-1.27,1.14-2.08h1.58L27.07,15.5l-.44,2.16H25.2l.44-2.16-.86-3.42h1.46Z"/></g></g></g></svg>