<svg xmlns="http://www.w3.org/2000/svg" viewBox="0 0 30 30"><defs><style>.cls-1{fill:#fff;}.cls-2{fill:#e1e36b;}.cls-3{fill:#cd790a;}.cls-4{fill:#d19401;}.cls-5{fill:#dcc426;}.cls-6{fill:#c85c14;}.cls-7{fill:#d29503;}.cls-8{fill:#ce7c09;}</style></defs><title>資產 2</title><g id="圖層_2" data-name="圖層 2"><g id="存款-銀行轉帳第二步"><g id="下載"><circle id="椭圆_1097" data-name="椭圆 1097" class="cls-1" cx="15" cy="15" r="15"/><path id="路径_89358" data-name="路径 89358" class="cls-2" d="M18,9.73l.24,4.11L13.63,10.7Z"/><g id="组_56465" data-name="组 56465"><path id="路径_89359" data-name="路径 89359" class="cls-3" d="M17.94,9.77l2.3,2.4-2.06,1.7Z"/><path id="路径_89360" data-name="路径 89360" class="cls-3" d="M16.55,8.32l2.14-.14,1.54,4Z"/></g><g id="组_56466" data-name="组 56466"><path id="路径_89361" data-name="路径 89361" class="cls-4" d="M16.66,8.32l1.39,1.46-4.4,1Zm-3,2.43-1.18,2.64,2.87-1.5Z"/></g><path id="路径_89362" data-name="路径 89362" class="cls-5" d="M14.86,15.36l.11,0,.43-3.54-2.88,1.5Z"/><path id="路径_89363" data-name="路径 89363" class="cls-6" d="M15.3,11.78l-.43,3.54,3.37-1.55Z"/><path id="路径_89364" data-name="路径 89364" class="cls-2" d="M14.87,15.32l-1.8,1.07-.54-3.16Z"/><path id="路径_89365" data-name="路径 89365" class="cls-7" d="M13.18,16.39l-.53-3.16L8.82,14Z"/><path id="路径_89366" data-name="路径 89366" class="cls-6" d="M8.81,13.94l4.37,2.42-1.29,1.39Z"/><path id="路径_89367" data-name="路径 89367" class="cls-7" d="M11.88,17.71,9.58,18l.65-2.32Z"/><path id="路径_89368" data-name="路径 89368" class="cls-2" d="M10.29,15.67,9.65,18l-2.1-1.28Z"/><path id="路径_89369" data-name="路径 89369" class="cls-6" d="M9.68,18l-2.85.38.75-1.65Z"/><path id="路径_89370" data-name="路径 89370" class="cls-7" d="M10.29,15.72l-2.74,1L7.91,15l1-1.07Z"/><path id="路径_89371" data-name="路径 89371" class="cls-2" d="M8.9,14l-1.78-.13.81,1.2Z"/><path id="路径_89372" data-name="路径 89372" class="cls-6" d="M7.13,13.86l.81,1.2L7,14.8Z"/><g id="组_56467" data-name="组 56467"><path id="路径_89373" data-name="路径 89373" class="cls-3" d="M7.37,13.91l-.1.93-2.6-1.7Zm-2.7-.77.61-.61.38.89Z"/><path id="路径_89374" data-name="路径 89374" class="cls-3" d="M5.28,12.53l-.61.61-1.3-1.35Z"/></g><path id="路径_89375" data-name="路径 89375" class="cls-2" d="M5.28,12.55l2.09,1.38-1.72-.49Zm-1.91-.74,1.06,1.11L2.25,11.78l-.09-.43Z"/><path id="路径_89376" data-name="路径 89376" class="cls-7" d="M2.16,11.4l.09.43-.52-.49-.39-.94Z"/><path id="路径_89377" data-name="路径 89377" class="cls-2" d="M12,17.63l-4.2,2.66-1-2Z"/><g id="组_56468" data-name="组 56468"><path id="路径_89378" data-name="路径 89378" class="cls-8" d="M7.86,20.24l-2.13.37L4.61,19.4l2.3-1.16ZM4.61,19.4l1.12,1.21-.66,1.18Z"/></g><path id="路径_89379" data-name="路径 89379" class="cls-5" d="M4.78,19.36l.66,3.45L4.38,21.5Z"/><path id="路径_89380" data-name="路径 89380" class="cls-2" d="M4.38,21.47,4,23.41l2,.06Z"/><path id="路径_89381" data-name="路径 89381" class="cls-5" d="M7.79,20.22l.3,1L7,21.78l-.31-1.37Z"/><g id="组_56469" data-name="组 56469"><path id="路径_89382" data-name="路径 89382" class="cls-8" d="M8.05,21.24l0,2.26L7,21.76Z"/><path id="路径_89383" data-name="路径 89383" class="cls-8" d="M8.07,22.3l1.68,1.21H8.09ZM12,17.55l-.77,2-3.43.64ZM7.75,20.2l.3,1,.57-.56Z"/><path id="路径_89384" data-name="路径 89384" class="cls-8" d="M8.62,20.68l2.56-1.12-3.43.64Z"/></g><path id="路径_89385" data-name="路径 89385" class="cls-4" d="M16.52,8.41l4.6-.29L19.93,6.9Z"/><path id="路径_89386" data-name="路径 89386" class="cls-5" d="M18.63,8.21l2.8,3.08-.35-3.22Z"/><path id="路径_89387" data-name="路径 89387" class="cls-2" d="M18.63,8.2l2.8,3.08-1.26.92Z"/><path id="路径_89388" data-name="路径 89388" class="cls-6" d="M21.37,11.29,23,10.14,21,8.07Z"/><path id="路径_89389" data-name="路径 89389" class="cls-5" d="M23,10.08l.24,1.16-3.17.91,1.26-.92Z"/><path id="路径_89390" data-name="路径 89390" class="cls-3" d="M19.86,12.11l.59.83,3.39.14,2-1L23,11.2Z"/><path id="路径_89391" data-name="路径 89391" class="cls-5" d="M25.86,12.08l-.26,1.16-1.76-.18Z"/><path id="路径_89392" data-name="路径 89392" class="cls-2" d="M25.86,12.07l-.26,1.15L27,14Z"/><path id="路径_89393" data-name="路径 89393" class="cls-4" d="M25.86,12.07l2.8.47-.18,1.31L27,14Z"/><path id="路径_89394" data-name="路径 89394" class="cls-2" d="M24.26,7.05,23,10.18l-3.21-3.3Z"/><path id="路径_89395" data-name="路径 89395" class="cls-5" d="M24.23,7l.22,2.53L23,10.18Z"/><path id="路径_89396" data-name="路径 89396" class="cls-4" d="M24.45,9.51v1L23,10.11Z"/><path id="路径_89397" data-name="路径 89397" class="cls-3" d="M24.25,9.5l2.27.75-.86,1-1.41-.79Z"/><path id="路径_89398" data-name="路径 89398" class="cls-5" d="M24.25,9.52l1.68-.39.6,1.14Z"/><path id="路径_89399" data-name="路径 89399" class="cls-4" d="M24.25,9.58,24,7.05l1.15,2.31Z"/><path id="路径_89400" data-name="路径 89400" class="cls-2" d="M24,7.05,25.9,8.36l0,.83-.75.17Z"/><path id="路径_89401" data-name="路径 89401" class="cls-3" d="M24,7.07l.4-.26,1.14-.28-.41.78.72,1.08Z"/></g></g></g></svg>