<svg xmlns="http://www.w3.org/2000/svg" viewBox="0 0 30 30"><defs><style>.cls-1{fill:#ff7200;}.cls-2{fill:#fff;}</style></defs><title>資產 5</title><g id="圖層_2" data-name="圖層 2"><g id="存款-銀行轉帳第二步"><g id="下載"><circle id="椭圆_1100" data-name="椭圆 1100" class="cls-1" cx="15" cy="15" r="15"/><path id="路径_89405" data-name="路径 89405" class="cls-2" d="M15.31,20.71l.69-.9a16.6,16.6,0,0,1,6.65-4.88l.38-.14a.47.47,0,0,1,.17,0,.25.25,0,0,1,.25.2.24.24,0,0,1-.13.26c-.34.22-.68.42-1,.66a16.11,16.11,0,0,0-5.6,6.79c-.22.5-.45,1-.68,1.5a.77.77,0,0,1-.81.42.81.81,0,0,1-.69-.55,28.64,28.64,0,0,0-1.7-3.42,16.47,16.47,0,0,0-5.4-5.33l-.14-.09A.21.21,0,0,1,7.18,15a.22.22,0,0,1,.21-.18.42.42,0,0,1,.22,0,16.42,16.42,0,0,1,7.6,5.78Zm-6.48-14a.3.3,0,0,1,.24.19c.23.49.46,1,.68,1.47a.45.45,0,0,0,.37.28l1.55.23A.27.27,0,0,1,11.9,9a.23.23,0,0,1-.08.27l-1.14,1.17a.42.42,0,0,0-.13.41c.1.53.18,1.07.26,1.61a.63.63,0,0,1-.05.3c-.08.11-.2.09-.32,0L9.09,12a.47.47,0,0,0-.51,0c-.43.26-.88.5-1.32.74a.26.26,0,0,1-.31,0,.28.28,0,0,1-.09-.32C7,12,7,11.42,7.12,10.89A.45.45,0,0,0,7,10.45c-.37-.37-.73-.76-1.11-1.13A.28.28,0,0,1,5.78,9c0-.14.15-.16.27-.18.53-.07,1-.16,1.58-.24a.34.34,0,0,0,.26-.2c.23-.51.48-1,.71-1.53a.28.28,0,0,1,.23-.2Zm10.91,5.88c.05-.28.1-.59.15-.91s.11-.57.14-.86a.5.5,0,0,0-.12-.28c-.37-.4-.75-.78-1.13-1.17-.08-.08-.17-.17-.12-.31s.16-.17.28-.18l1.58-.25a.3.3,0,0,0,.26-.2l.7-1.5c.05-.11.11-.21.24-.21a.3.3,0,0,1,.25.21l.7,1.5a.31.31,0,0,0,.27.21l1.59.25a.27.27,0,0,1,.26.17.31.31,0,0,1-.1.31l-1.13,1.15a.4.4,0,0,0-.12.4q.12.83.27,1.65a.32.32,0,0,1-.08.28.24.24,0,0,1-.29,0c-.46-.26-.94-.51-1.4-.78a.42.42,0,0,0-.43,0q-.69.41-1.41.78c-.2.11-.37,0-.36-.26Z"/></g></g></g></svg>